<svg width="102" height="102" viewBox="0 0 102 102" fill="none" xmlns="http://www.w3.org/2000/svg">
<path d="M101 28.7778L55.8564 3.69801C53.4826 2.3792 52.2956 1.71979 51 1.71979C49.7044 1.71979 48.5174 2.3792 46.1436 3.69802L26 14.8889M101 28.7778V67.3382C101 70.2074 101 71.6421 100.309 72.8158C99.6187 73.9896 98.3646 74.6863 95.8564 76.0798L51 101M101 28.7778L76 42.6667M26 14.8889L1 28.7778M26 14.8889L76 42.6667M51 101V56.5556M51 101L6.14357 76.0798C3.63538 74.6863 2.38129 73.9896 1.69065 72.8158C1 71.6421 1 70.2074 1 67.3382V28.7778M76 42.6667L51 56.5556M51 56.5556L1 28.7778" stroke="#082E21" stroke-width="2" stroke-linecap="round" stroke-linejoin="round"/>
</svg>
