<svg width="17" height="17" viewBox="0 0 17 17" fill="none" xmlns="http://www.w3.org/2000/svg">
<path d="M13.345 3.1875H3.655C3.10783 3.18891 2.58356 3.40725 2.19715 3.79466C1.81075 4.18206 1.59375 4.7069 1.59375 5.25406V11.2147C1.59375 11.7619 1.81075 12.2867 2.19715 12.6741C2.58356 13.0615 3.10783 13.2798 3.655 13.2812H13.345C13.8922 13.2798 14.4164 13.0615 14.8028 12.6741C15.1893 12.2867 15.4063 11.7619 15.4062 11.2147V5.25406C15.4063 4.7069 15.1893 4.18206 14.8028 3.79466C14.4164 3.40725 13.8922 3.18891 13.345 3.1875ZM13.345 4.25H13.43L8.5 7.84125L3.57 4.25H3.655H13.345ZM14.3438 11.2147C14.3438 11.4801 14.2387 11.7346 14.0515 11.9228C13.8644 12.1109 13.6104 12.2173 13.345 12.2188H3.655C3.38963 12.2173 3.1356 12.1109 2.94845 11.9228C2.7613 11.7346 2.65625 11.4801 2.65625 11.2147V5.25406C2.65747 5.14745 2.67539 5.04169 2.70937 4.94063L8.19187 8.93031C8.28286 8.9968 8.39263 9.03263 8.50531 9.03263C8.618 9.03263 8.72777 8.9968 8.81875 8.93031L14.2959 4.94063C14.3299 5.04169 14.3478 5.14745 14.3491 5.25406L14.3438 11.2147Z" fill="#778082"/>
</svg>
