<svg width="102" height="102" viewBox="0 0 102 102" fill="none" xmlns="http://www.w3.org/2000/svg">
<path d="M1 24.0769C1 66.559 35.441 101 77.9231 101H89.4615C92.5217 101 95.4566 99.7843 97.6205 97.6205C99.7843 95.4566 101 92.5217 101 89.4615V82.4256C101 79.7795 99.2 77.4718 96.6308 76.8308L73.9487 71.159C71.6923 70.5949 69.3231 71.441 67.9333 73.2974L62.959 79.9282C61.5128 81.8564 59.0154 82.7077 56.7538 81.8769C48.3584 78.7904 40.7341 73.9158 34.4091 67.5909C28.0842 61.2659 23.2096 53.6416 20.1231 45.2462C19.2923 42.9846 20.1436 40.4872 22.0718 39.041L28.7026 34.0667C30.5641 32.6769 31.4051 30.3026 30.841 28.0513L25.1692 5.36923C24.8571 4.12151 24.137 3.01386 23.1233 2.22224C22.1097 1.43062 20.8605 1.00043 19.5744 1H12.5385C9.47827 1 6.54342 2.21566 4.37954 4.37954C2.21566 6.54342 1 9.47827 1 12.5385V24.0769Z" stroke="#082E21" stroke-width="2" stroke-linecap="round" stroke-linejoin="round"/>
</svg>
