<svg width="17" height="17" viewBox="0 0 17 17" fill="none" xmlns="http://www.w3.org/2000/svg">
<path d="M11.8868 15.4619C13.1248 15.4619 13.943 15.1276 14.6687 14.3164C14.7256 14.2595 14.7755 14.1955 14.8323 14.1385C15.2592 13.6619 15.4584 13.1923 15.4584 12.744C15.4584 12.2318 15.1597 11.755 14.5264 11.3139L12.456 9.87671C11.8156 9.43559 11.0685 9.38577 10.4709 9.97631L9.92305 10.5242C9.7594 10.6878 9.61711 10.6949 9.45346 10.5953C9.07636 10.3534 8.30083 9.67748 7.77431 9.15096C7.21935 8.60314 6.67863 7.99123 6.40114 7.543C6.30154 7.37935 6.31574 7.24417 6.4794 7.08051L7.02012 6.53266C7.61779 5.93502 7.56801 5.18082 7.12685 4.5476L5.68252 2.47716C5.24851 1.84391 4.77181 1.5522 4.25953 1.5451C3.81128 1.53797 3.34171 1.7443 2.86502 2.17119C2.80096 2.22814 2.74404 2.27792 2.68002 2.32774C1.87604 3.05346 1.54163 3.87167 1.54163 5.10256C1.54163 7.13743 2.79386 9.61345 5.09199 11.9116C7.37587 14.1955 9.859 15.4619 11.8868 15.4619ZM11.8939 14.3662C10.0796 14.4018 7.75297 13.0073 5.9102 11.1716C4.05319 9.32172 2.59462 6.91689 2.6302 5.10256C2.64444 4.31993 2.9148 3.64399 3.47689 3.16019C3.51958 3.11748 3.56229 3.0819 3.61207 3.04635C3.81841 2.86136 4.05319 2.76175 4.25243 2.76175C4.46587 2.76175 4.65087 2.84002 4.78605 3.05346L6.16635 5.1239C6.31574 5.34448 6.32998 5.5935 6.1094 5.81404L5.48329 6.44016C4.98525 6.93113 5.02793 7.52877 5.38372 8.00546C5.78926 8.55332 6.49364 9.3502 7.03436 9.89095C7.58221 10.4388 8.44314 11.2072 8.99097 11.6199C9.46769 11.9756 10.0725 12.0112 10.5634 11.5202L11.1895 10.8941C11.4101 10.6736 11.652 10.6878 11.8725 10.8301L13.943 12.2104C14.1564 12.3527 14.2418 12.5306 14.2418 12.744C14.2418 12.9504 14.1422 13.178 13.9501 13.3915C13.9145 13.4413 13.8861 13.4769 13.8434 13.5267C13.3525 14.0816 12.6765 14.352 11.8939 14.3662Z" fill="#778082"/>
</svg>
