<svg width="24" height="24" viewBox="0 0 24 24" fill="none" xmlns="http://www.w3.org/2000/svg">
<path d="M7.91 20.889C16.212 20.889 20.755 14.004 20.755 8.044C20.755 7.851 20.755 7.657 20.746 7.464C21.6305 6.82305 22.3938 6.02966 23 5.121C22.1742 5.48546 21.2991 5.72573 20.403 5.834C21.3472 5.26921 22.0544 4.38086 22.393 3.334C21.5061 3.85973 20.5352 4.22879 19.523 4.425C19.101 3.97461 18.5909 3.61572 18.0245 3.37059C17.458 3.12547 16.8472 2.99933 16.23 3C15.0326 3.00106 13.8846 3.47719 13.0379 4.32388C12.1912 5.17056 11.7151 6.31861 11.714 7.516C11.714 7.868 11.758 8.212 11.828 8.546C8.078 8.361 4.75 6.556 2.523 3.828C1.94682 4.82293 1.77088 5.99984 2.0309 7.11978C2.29091 8.23971 2.9674 9.21871 3.923 9.858C3.20727 9.83315 2.50742 9.64029 1.88 9.295V9.356C1.8811 10.3981 2.24192 11.4078 2.90149 12.2146C3.56106 13.0214 4.47893 13.5758 5.5 13.784C5.11279 13.891 4.71273 13.9445 4.311 13.943C4.021 13.943 3.739 13.916 3.466 13.863C3.75373 14.7603 4.31507 15.5451 5.07132 16.1073C5.82757 16.6696 6.74081 16.981 7.683 16.998C6.08415 18.2549 4.10871 18.9368 2.075 18.934C1.71575 18.9359 1.35673 18.9155 1 18.873C3.06403 20.19 5.46157 20.8895 7.91 20.889V20.889Z" fill="#082E21"/>
</svg>
